<?xml version="1.0" encoding="utf-8"?>
<!-- Generator: Adobe Illustrator 27.9.0, SVG Export Plug-In . SVG Version: 6.00 Build 0)  -->
<svg version="1.1" id="Layer_1" xmlns="http://www.w3.org/2000/svg" xmlns:xlink="http://www.w3.org/1999/xlink" x="0px" y="0px"
	 viewBox="0 0 2000 2000" style="enable-background:new 0 0 2000 2000;" xml:space="preserve">
<g>
	<path d="M595.2,1914c-21.1,0-35-9.2-42.3-27.8c-7.4-19.1-3.7-36,11.6-50.2c29.6-27.6,59.5-55,89.2-82.5
		c103.7-96,207.4-192,311.1-288c104-96.3,208-192.6,312.1-288.8c72.4-66.9,145.1-133.5,218-199.9c11.5-10.4,21.7-22.6,39.1-25.3
		c26.7-4.1,53.7,19,53.4,45.7c-1.4,144.5-1.2,289-0.5,433.5c0.5,106.6-36,199.2-103.7,279.9c-71.6,85.4-160.8,145.6-267.4,178.9
		c-49.9,15.6-101.3,24.5-153.6,24.6"/>
	<path d="M1337,494c63.4,0,107.1-0.1,170.6,0c1.4,0,2.4,0,2.7,0c42.8,0.1,75.7,34.8,75.6,77.6c-0.1,59.8,0,139,0.6,176.8
		c0.5,32.4-11.5,57.9-34.5,79.2c-66.5,61.6-133.1,123.2-199.6,184.7c-63,58.3-126,116.6-189,174.8c-23.3,21.5-57.3,16.8-73-10.4
		c-2.9-5-4.5-11.5-4.5-17.3c-0.1-157.5-0.4-458.4-0.5-591.1c0-0.3,0-0.7,0-1c0-40.6,32.9-73.4,73.5-73.4h6.3
		c64.7-0.2,170.6,0,170.6,0S1337,494.1,1337,494z"/>
	<path d="M1335.4,425.2c-36.3,0-112.7-0.1-171.4-0.1c-42.8,0-77.5-34.8-77.5-77.6c0-0.3,0-0.6,0-1c0-74.9,1.1-113.3,0-188.2
		c0-0.3,0-0.6,0-0.9c-0.6-41.2,32.8-71.9,73.9-74.9c19.5-1.4,336.3-1.4,352,0c40.4,3.5,73.5,32.8,73.7,73.4v1
		c0.1,45.8,0,124.4,0,191.5c0,1.1,0,2.2,0,3.3c0,40.4-32.7,73.2-73.1,73.2h-4c-64.7,0.2-108.7,0.5-173.5,0.5
		C1335.4,425.4,1335.4,425.3,1335.4,425.2z"/>
	<path d="M769.1,1537.3c-2.1,10.8-8.6,21.4-16.2,28.6c-75.7,71.1-152,141.7-228.5,212c-31.3,28.8-75.3,13.9-83.9-27.8
		c-18.4-88.8-36.8-177.6-55.1-266.4c-4-19.7,2.3-36.3,17.6-47.4c15.6-11.3,34.4-10.5,51.7-1c47.1,25.9,97.2,44.5,150.5,51
		c36.9,4.5,74.5,4.4,111.8,4.3C744.4,1490.4,774.7,1508.7,769.1,1537.3z"/>
</g>
</svg>
